<mxfile host="app.diagrams.net" modified="2020-10-07T04:44:16.820Z" agent="5.0 (Windows NT 10.0; Win64; x64) AppleWebKit/537.36 (KHTML, like Gecko) Chrome/85.0.4183.121 Safari/537.36" etag="-BdQVRDbO4pmiRYReDV8" version="13.7.7" type="github" pages="3">
  <diagram id="-A4pKn84wvYaUymURofo" name="Agent 실행">
    <mxGraphModel dx="807" dy="798" grid="1" gridSize="10" guides="1" tooltips="1" connect="1" arrows="1" fold="1" page="1" pageScale="1" pageWidth="827" pageHeight="1169" math="0" shadow="0">
      <root>
        <mxCell id="1E7Z0HSABHjKRTArkdl4-0" />
        <mxCell id="1E7Z0HSABHjKRTArkdl4-1" parent="1E7Z0HSABHjKRTArkdl4-0" />
        <UserObject label="Agent 시작" lucidchartObjectId="5C4rR-WC7tb9" id="1E7Z0HSABHjKRTArkdl4-2">
          <mxCell style="html=1;whiteSpace=wrap;rounded=1;arcSize=50;whiteSpace=wrap;fontSize=13;fontColor=#3d4752;align=center;spacing=9;strokeColor=#3d4752;strokeOpacity=100;fillOpacity=100;shadow=1;fillColor=#ffdba9;strokeWidth=2;" vertex="1" zOrder="75" parent="1E7Z0HSABHjKRTArkdl4-1">
            <mxGeometry x="1100" y="40" width="108" height="48" as="geometry" />
          </mxCell>
        </UserObject>
        <UserObject label="" lucidchartObjectId="OpiC9W~my1.Z" id="1E7Z0HSABHjKRTArkdl4-3">
          <mxCell style="html=1;jettySize=18;whiteSpace=wrap;fontSize=11;strokeColor=#494949;strokeWidth=2;rounded=1;arcSize=0;edgeStyle=orthogonalEdgeStyle;startArrow=none;;endArrow=block;endFill=1;;exitX=0.5;exitY=1.025;exitPerimeter=1;entryX=0.5;entryY=-0.023255813953488372;entryPerimeter=1;" edge="1" parent="1E7Z0HSABHjKRTArkdl4-1" source="1E7Z0HSABHjKRTArkdl4-2" target="1E7Z0HSABHjKRTArkdl4-22">
            <mxGeometry width="100" height="100" relative="1" as="geometry">
              <Array as="points" />
            </mxGeometry>
          </mxCell>
        </UserObject>
        <UserObject label="" lucidchartObjectId="nuiCL~X~iwAi" id="1E7Z0HSABHjKRTArkdl4-4">
          <mxCell style="html=1;jettySize=18;whiteSpace=wrap;fontSize=11;strokeColor=#494949;strokeWidth=2;rounded=1;arcSize=0;edgeStyle=orthogonalEdgeStyle;startArrow=none;;endArrow=block;endFill=1;;exitX=0.5;exitY=1.0232558139534884;exitPerimeter=1;entryX=0.5;entryY=-0.018356180850354006;entryPerimeter=1;" edge="1" parent="1E7Z0HSABHjKRTArkdl4-1" source="1E7Z0HSABHjKRTArkdl4-22" target="1E7Z0HSABHjKRTArkdl4-19">
            <mxGeometry width="100" height="100" relative="1" as="geometry">
              <Array as="points" />
            </mxGeometry>
          </mxCell>
        </UserObject>
        <UserObject label="끝" lucidchartObjectId="wviCHMNWbWc1" id="1E7Z0HSABHjKRTArkdl4-5">
          <mxCell style="html=1;whiteSpace=wrap;rounded=1;arcSize=50;whiteSpace=wrap;fontSize=16;fontColor=#3d4752;align=center;spacing=9;strokeColor=#3d4752;strokeOpacity=100;fillOpacity=100;shadow=1;fillColor=#ffdba9;strokeWidth=2;" vertex="1" zOrder="84" parent="1E7Z0HSABHjKRTArkdl4-1">
            <mxGeometry x="1178" y="700" width="96" height="48" as="geometry" />
          </mxCell>
        </UserObject>
        <UserObject label="" lucidchartObjectId="sAiCryDKwufC" id="1E7Z0HSABHjKRTArkdl4-6">
          <mxCell style="html=1;jettySize=18;whiteSpace=wrap;fontSize=13;fontColor=#3d4752;align=center;strokeColor=#494949;strokeWidth=2;rounded=1;arcSize=0;edgeStyle=orthogonalEdgeStyle;startArrow=none;;endArrow=block;endFill=1;;exitX=0.5;exitY=1.0183561808503545;exitPerimeter=1;entryX=0.5;entryY=-0.025906735751295335;entryPerimeter=1;" edge="1" parent="1E7Z0HSABHjKRTArkdl4-1" source="1E7Z0HSABHjKRTArkdl4-19" target="1E7Z0HSABHjKRTArkdl4-16">
            <mxGeometry width="100" height="100" relative="1" as="geometry">
              <Array as="points" />
            </mxGeometry>
          </mxCell>
        </UserObject>
        <mxCell id="1E7Z0HSABHjKRTArkdl4-7" value="Y" style="text;html=1;resizable=0;labelBackgroundColor=#ffffff;align=center;verticalAlign=middle;fontColor=#3d4752;;fontSize=13.333333333333332;" vertex="1" parent="1E7Z0HSABHjKRTArkdl4-6">
          <mxGeometry x="-0.23671926772277208" relative="1" as="geometry" />
        </mxCell>
        <UserObject label="" lucidchartObjectId="BEiC3EUkhw_N" id="1E7Z0HSABHjKRTArkdl4-8">
          <mxCell style="html=1;jettySize=18;whiteSpace=wrap;fontSize=13;fontColor=#3d4752;align=center;strokeColor=#494949;strokeWidth=2;rounded=1;arcSize=0;edgeStyle=orthogonalEdgeStyle;startArrow=none;;endArrow=block;endFill=1;;exitX=1.0183561808503545;exitY=0.5;exitPerimeter=1;entryX=0.5;entryY=-0.02590673575129532;entryPerimeter=1;" edge="1" parent="1E7Z0HSABHjKRTArkdl4-1" source="1E7Z0HSABHjKRTArkdl4-19" target="1E7Z0HSABHjKRTArkdl4-13">
            <mxGeometry width="100" height="100" relative="1" as="geometry">
              <Array as="points" />
            </mxGeometry>
          </mxCell>
        </UserObject>
        <mxCell id="1E7Z0HSABHjKRTArkdl4-9" value="N" style="text;html=1;resizable=0;labelBackgroundColor=#ffffff;align=center;verticalAlign=middle;fontColor=#3d4752;;fontSize=13.333333333333332;" vertex="1" parent="1E7Z0HSABHjKRTArkdl4-8">
          <mxGeometry x="0.5958332126460448" relative="1" as="geometry" />
        </mxCell>
        <UserObject label="" lucidchartObjectId="JIiCs_2jb9Z~" id="1E7Z0HSABHjKRTArkdl4-10">
          <mxCell style="html=1;jettySize=18;whiteSpace=wrap;fontSize=11;strokeColor=#494949;strokeWidth=2;rounded=1;arcSize=0;edgeStyle=orthogonalEdgeStyle;startArrow=none;;endArrow=block;endFill=1;;exitX=0.5;exitY=1.0259067357512959;exitPerimeter=1;entryX=-0.01250000000000009;entryY=0.4999999999999996;entryPerimeter=1;" edge="1" parent="1E7Z0HSABHjKRTArkdl4-1" source="1E7Z0HSABHjKRTArkdl4-16" target="1E7Z0HSABHjKRTArkdl4-27">
            <mxGeometry width="100" height="100" relative="1" as="geometry">
              <Array as="points" />
            </mxGeometry>
          </mxCell>
        </UserObject>
        <UserObject label="" lucidchartObjectId="X9iCmJtd5kHA" id="1E7Z0HSABHjKRTArkdl4-11">
          <mxCell style="html=1;jettySize=18;whiteSpace=wrap;fontSize=11;strokeColor=#494949;strokeWidth=2;rounded=1;arcSize=0;edgeStyle=orthogonalEdgeStyle;startArrow=none;;endArrow=block;endFill=1;;exitX=0.5;exitY=1.0259067357512954;exitPerimeter=1;entryX=1.0125;entryY=0.4999999999999996;entryPerimeter=1;" edge="1" parent="1E7Z0HSABHjKRTArkdl4-1" source="1E7Z0HSABHjKRTArkdl4-13" target="1E7Z0HSABHjKRTArkdl4-27">
            <mxGeometry width="100" height="100" relative="1" as="geometry">
              <Array as="points" />
            </mxGeometry>
          </mxCell>
        </UserObject>
        <mxCell id="1E7Z0HSABHjKRTArkdl4-12" value="" style="group;dropTarget=0;" vertex="1" parent="1E7Z0HSABHjKRTArkdl4-1">
          <mxGeometry x="1250" y="354" width="289" height="46" as="geometry" />
        </mxCell>
        <UserObject label="단순 TCP소켓 생성" lucidchartObjectId="GEiCJOs~Sip3" id="1E7Z0HSABHjKRTArkdl4-13">
          <mxCell style="html=1;whiteSpace=wrap;;whiteSpace=wrap;fontSize=13;fontColor=#3d4752;align=center;spacing=7;strokeColor=#3d4752;strokeOpacity=100;fillOpacity=100;shadow=1;fillColor=#ffffff;strokeWidth=2;" vertex="1" zOrder="96" parent="1E7Z0HSABHjKRTArkdl4-12">
            <mxGeometry width="96" height="46" as="geometry" />
          </mxCell>
        </UserObject>
        <UserObject label="&lt;div style=&quot;text-align: left;&quot;&gt;&lt;span style=&quot;font-size:9px;color:#3d4752;&quot;&gt;ApMaxSimpleConnector&#xa;&lt;/span&gt;&lt;/div&gt;&lt;div style=&quot;text-align: left;&quot;&gt;&lt;span style=&quot;font-size:9px;color:#3d4752;&quot;&gt;#&amp;lt;init&amp;gt;(ApMaxConnectionVO)&lt;/span&gt;&lt;/div&gt;" lucidchartObjectId="m7iCBpYmv.do" id="1E7Z0HSABHjKRTArkdl4-14">
          <mxCell style="html=1;whiteSpace=wrap;;whiteSpace=wrap;overflow=width;spacing=3;verticalAlign=top;strokeColor=none;fillOpacity=0;fillColor=#ffffff;strokeWidth=0;" vertex="1" zOrder="99" parent="1E7Z0HSABHjKRTArkdl4-12">
            <mxGeometry x="108" width="181" height="46" as="geometry" />
          </mxCell>
        </UserObject>
        <mxCell id="1E7Z0HSABHjKRTArkdl4-15" value="" style="group;dropTarget=0;" vertex="1" parent="1E7Z0HSABHjKRTArkdl4-1">
          <mxGeometry x="914" y="354" width="288" height="46" as="geometry" />
        </mxCell>
        <UserObject label="TCP소켓 풀 생성" lucidchartObjectId="zAiCmeFoQR-o" id="1E7Z0HSABHjKRTArkdl4-16">
          <mxCell style="html=1;whiteSpace=wrap;;whiteSpace=wrap;fontSize=13;fontColor=#3d4752;align=center;spacing=7;strokeColor=#3d4752;strokeOpacity=100;fillOpacity=100;shadow=1;fillColor=#ffffff;strokeWidth=2;" vertex="1" zOrder="93" parent="1E7Z0HSABHjKRTArkdl4-15">
            <mxGeometry x="192" width="96" height="46" as="geometry" />
          </mxCell>
        </UserObject>
        <UserObject label="&lt;div style=&quot;text-align: right;&quot;&gt;&lt;span style=&quot;font-size:9px;color:#3d4752;&quot;&gt;ApMaxPoolConnector&#xa;&lt;/span&gt;&lt;/div&gt;&lt;div style=&quot;text-align: right;&quot;&gt;&lt;span style=&quot;font-size:9px;color:#3d4752;&quot;&gt;#&amp;lt;init&amp;gt;(ApMaxConnectionVO)&lt;/span&gt;&lt;/div&gt;" lucidchartObjectId="xCiCRCPNgART" id="1E7Z0HSABHjKRTArkdl4-17">
          <mxCell style="html=1;whiteSpace=wrap;;whiteSpace=wrap;overflow=width;spacing=3;verticalAlign=top;strokeColor=none;fillOpacity=0;fillColor=#ffffff;strokeWidth=0;" vertex="1" zOrder="94" parent="1E7Z0HSABHjKRTArkdl4-15">
            <mxGeometry width="181" height="46" as="geometry" />
          </mxCell>
        </UserObject>
        <mxCell id="1E7Z0HSABHjKRTArkdl4-18" value="" style="group;dropTarget=0;" vertex="1" parent="1E7Z0HSABHjKRTArkdl4-1">
          <mxGeometry x="890" y="233" width="342" height="97" as="geometry" />
        </mxCell>
        <UserObject label="커넥션 풀 기능" lucidchartObjectId="puiC7YEizywe" id="1E7Z0HSABHjKRTArkdl4-19">
          <mxCell style="html=1;whiteSpace=wrap;rhombus;whiteSpace=wrap;fontSize=13;fontColor=#3d4752;align=center;spacing=3;strokeColor=#3d4752;strokeOpacity=100;fillOpacity=100;shadow=1;fillColor=#ffffff;strokeWidth=2;" vertex="1" zOrder="90" parent="1E7Z0HSABHjKRTArkdl4-18">
            <mxGeometry x="186" width="156" height="72" as="geometry" />
          </mxCell>
        </UserObject>
        <UserObject label="&lt;div style=&quot;text-align: right;&quot;&gt;&lt;span style=&quot;font-size:9px;&quot;&gt;ApMaxConnectorFactory&#xa;&lt;/span&gt;&lt;/div&gt;&lt;div style=&quot;text-align: right;&quot;&gt;&lt;span style=&quot;font-size:9px;&quot;&gt;#getInstance()&lt;/span&gt;&lt;/div&gt;" lucidchartObjectId="oyiCgZCgUPKI" id="1E7Z0HSABHjKRTArkdl4-20">
          <mxCell style="html=1;whiteSpace=wrap;;whiteSpace=wrap;overflow=width;spacing=3;verticalAlign=top;strokeColor=none;fillOpacity=0;fillColor=#ffffff;strokeWidth=0;" vertex="1" zOrder="91" parent="1E7Z0HSABHjKRTArkdl4-18">
            <mxGeometry y="59" width="230" height="38" as="geometry" />
          </mxCell>
        </UserObject>
        <mxCell id="1E7Z0HSABHjKRTArkdl4-21" value="" style="group;dropTarget=0;" vertex="1" parent="1E7Z0HSABHjKRTArkdl4-1">
          <mxGeometry x="974" y="111" width="264" height="74" as="geometry" />
        </mxCell>
        <UserObject label="어플리케이션 실행 되면서, 초기 환경 설정" lucidchartObjectId="TkiCP6WkZ~p4" id="1E7Z0HSABHjKRTArkdl4-22">
          <mxCell style="html=1;whiteSpace=wrap;;whiteSpace=wrap;fontSize=13;fontColor=#3d4752;align=center;spacing=9;strokeColor=#3d4752;strokeOpacity=100;fillOpacity=100;rounded=1;absoluteArcSize=1;arcSize=9.6;shadow=1;fillColor=#ffffff;strokeWidth=2;" vertex="1" zOrder="76" parent="1E7Z0HSABHjKRTArkdl4-21">
            <mxGeometry x="96" y="22" width="168" height="52" as="geometry" />
          </mxCell>
        </UserObject>
        <UserObject label="FilterChain#init(FilterConfig)" lucidchartObjectId="RyiCZbriuxBK" id="1E7Z0HSABHjKRTArkdl4-23">
          <mxCell style="html=1;whiteSpace=wrap;;whiteSpace=wrap;fontSize=9;fontColor=#3d4752;align=center;spacing=3;verticalAlign=top;strokeColor=none;fillOpacity=0;fillColor=#ffffff;strokeWidth=0;" vertex="1" zOrder="89" parent="1E7Z0HSABHjKRTArkdl4-21">
            <mxGeometry width="171" height="22" as="geometry" />
          </mxCell>
        </UserObject>
        <UserObject label="" lucidchartObjectId="_.iCbVFWU1A0" id="1E7Z0HSABHjKRTArkdl4-24">
          <mxCell style="html=1;jettySize=18;whiteSpace=wrap;fontSize=11;strokeColor=#494949;strokeWidth=2;rounded=1;arcSize=0;edgeStyle=orthogonalEdgeStyle;startArrow=none;;endArrow=block;endFill=1;;exitX=0.5;exitY=1.018292679878049;exitPerimeter=1;entryX=0.5;entryY=-0.016666666666666666;entryPerimeter=1;" edge="1" parent="1E7Z0HSABHjKRTArkdl4-1" source="1E7Z0HSABHjKRTArkdl4-27" target="1E7Z0HSABHjKRTArkdl4-30">
            <mxGeometry width="100" height="100" relative="1" as="geometry">
              <Array as="points" />
            </mxGeometry>
          </mxCell>
        </UserObject>
        <UserObject label="" lucidchartObjectId="FajCFAkbZ3LA" id="1E7Z0HSABHjKRTArkdl4-25">
          <mxCell style="html=1;jettySize=18;whiteSpace=wrap;fontSize=11;strokeColor=#494949;strokeWidth=2;rounded=1;arcSize=0;edgeStyle=orthogonalEdgeStyle;startArrow=none;;endArrow=block;endFill=1;;exitX=0.5;exitY=1.0166666666666666;exitPerimeter=1;entryX=0.5;entryY=-0.025;entryPerimeter=1;" edge="1" parent="1E7Z0HSABHjKRTArkdl4-1" source="1E7Z0HSABHjKRTArkdl4-30" target="1E7Z0HSABHjKRTArkdl4-5">
            <mxGeometry width="100" height="100" relative="1" as="geometry">
              <Array as="points" />
            </mxGeometry>
          </mxCell>
        </UserObject>
        <mxCell id="1E7Z0HSABHjKRTArkdl4-26" value="" style="group;dropTarget=0;" vertex="1" parent="1E7Z0HSABHjKRTArkdl4-1">
          <mxGeometry x="1178" y="472" width="301" height="97" as="geometry" />
        </mxCell>
        <UserObject label="데이터  직렬화 모듈 구성" lucidchartObjectId="_IiC0SfEwoB0" id="1E7Z0HSABHjKRTArkdl4-27">
          <mxCell style="html=1;whiteSpace=wrap;;whiteSpace=wrap;fontSize=13;fontColor=#3d4752;align=center;spacing=7;strokeColor=#3d4752;strokeOpacity=100;fillOpacity=100;shadow=1;fillColor=#ffffff;strokeWidth=2;" vertex="1" zOrder="98" parent="1E7Z0HSABHjKRTArkdl4-26">
            <mxGeometry width="96" height="66" as="geometry" />
          </mxCell>
        </UserObject>
        <UserObject label="DataSerializer#&amp;lt;init&amp;gt;" lucidchartObjectId="J_iCE2H2TnVG" id="1E7Z0HSABHjKRTArkdl4-28">
          <mxCell style="html=1;whiteSpace=wrap;;whiteSpace=wrap;fontSize=9;fontColor=#3d4752;align=left;spacing=3;verticalAlign=top;strokeColor=none;fillOpacity=0;fillColor=#ffffff;strokeWidth=0;" vertex="1" zOrder="105" parent="1E7Z0HSABHjKRTArkdl4-26">
            <mxGeometry x="54" y="72" width="247" height="25" as="geometry" />
          </mxCell>
        </UserObject>
        <mxCell id="1E7Z0HSABHjKRTArkdl4-29" value="" style="group;dropTarget=0;" vertex="1" parent="1E7Z0HSABHjKRTArkdl4-1">
          <mxGeometry x="1178" y="580" width="320" height="115" as="geometry" />
        </mxCell>
        <UserObject label="사용하는 문자셋 설정" lucidchartObjectId="P~iCQAlLyb0S" id="1E7Z0HSABHjKRTArkdl4-30">
          <mxCell style="html=1;whiteSpace=wrap;;whiteSpace=wrap;fontSize=13;fontColor=#3d4752;align=center;spacing=7;strokeColor=#3d4752;strokeOpacity=100;fillOpacity=100;shadow=1;fillColor=#ffffff;strokeWidth=2;" vertex="1" zOrder="107" parent="1E7Z0HSABHjKRTArkdl4-29">
            <mxGeometry width="96" height="72" as="geometry" />
          </mxCell>
        </UserObject>
        <UserObject label="ServletResponseWrapper#setCharacterset(String)" lucidchartObjectId="5ajC06-LD8bt" id="1E7Z0HSABHjKRTArkdl4-31">
          <mxCell style="html=1;whiteSpace=wrap;;whiteSpace=wrap;fontSize=9;fontColor=#3d4752;align=left;spacing=3;verticalAlign=top;strokeColor=none;fillOpacity=0;fillColor=#ffffff;strokeWidth=0;" vertex="1" zOrder="109" parent="1E7Z0HSABHjKRTArkdl4-29">
            <mxGeometry x="54" y="77" width="266" height="38" as="geometry" />
          </mxCell>
        </UserObject>
      </root>
    </mxGraphModel>
  </diagram>
  <diagram name="Agent 앱 캐시" id="74e2e168-ea6b-b213-b513-2b3c1d86103e">
    <mxGraphModel dx="183" dy="665" grid="1" gridSize="10" guides="1" tooltips="1" connect="1" arrows="1" fold="1" page="1" pageScale="1" pageWidth="827" pageHeight="1169" background="#ffffff" math="0" shadow="0">
      <root>
        <mxCell id="0" />
        <mxCell id="1" parent="0" />
        <mxCell id="6gqNRrTBoCOJtq8rXavL-1" value="" style="rounded=1;whiteSpace=wrap;html=1;shadow=0;strokeWidth=1;fillColor=#E6FFCC;fontFamily=Helvetica;fontSize=13;align=right;strokeColor=none;gradientDirection=east;arcSize=4;textOpacity=40;opacity=70;" vertex="1" parent="1">
          <mxGeometry x="1155.75" y="730" width="394.25" height="120" as="geometry" />
        </mxCell>
        <mxCell id="2cqHmMZ8rJubDwZYxFgL-2" value="" style="group;dropTarget=0;shadow=0;fontFamily=Helvetica;fontSize=13;" vertex="1" parent="1">
          <mxGeometry x="850" y="205" width="790" height="655" as="geometry" />
        </mxCell>
        <UserObject label="" lucidchartObjectId=".9jCaByxrfdc" id="2cqHmMZ8rJubDwZYxFgL-3">
          <mxCell style="html=1;whiteSpace=wrap;whiteSpace=wrap;fontSize=13;align=center;spacing=3;strokeColor=#7ab648;strokeOpacity=100;fillOpacity=0;shadow=0;fillColor=#000000;strokeWidth=1;fontFamily=Helvetica;" vertex="1" zOrder="143" parent="2cqHmMZ8rJubDwZYxFgL-2">
            <mxGeometry width="790" height="655" as="geometry" />
          </mxCell>
        </UserObject>
        <UserObject label="앱 캐시 시작" lucidchartObjectId="UkjCKOFqEdq9" id="2cqHmMZ8rJubDwZYxFgL-6">
          <mxCell style="html=1;whiteSpace=wrap;rounded=1;arcSize=50;whiteSpace=wrap;fontSize=13;fontColor=#3d4752;align=center;spacing=9;strokeColor=#3d4752;strokeOpacity=100;fillOpacity=100;shadow=1;fillColor=#ffdba9;strokeWidth=2;fontFamily=Helvetica;" vertex="1" zOrder="112" parent="1">
            <mxGeometry x="881.75" y="41" width="108" height="48" as="geometry" />
          </mxCell>
        </UserObject>
        <UserObject label="앱 캐시 끝" lucidchartObjectId="3kjChAtjdSjl" id="2cqHmMZ8rJubDwZYxFgL-7">
          <mxCell style="html=1;whiteSpace=wrap;rounded=1;arcSize=50;whiteSpace=wrap;fontSize=13;fontColor=#3d4752;align=center;spacing=9;strokeColor=#3d4752;strokeOpacity=100;fillOpacity=100;shadow=1;fillColor=#ffdba9;strokeWidth=2;fontFamily=Helvetica;" vertex="1" zOrder="113" parent="1">
            <mxGeometry x="891.75" y="1109" width="96" height="48" as="geometry" />
          </mxCell>
        </UserObject>
        <UserObject label="" lucidchartObjectId="gljCJS.0c2aK" id="2cqHmMZ8rJubDwZYxFgL-8">
          <mxCell style="html=1;jettySize=18;whiteSpace=wrap;fontSize=13;strokeColor=#494949;strokeWidth=2;rounded=1;arcSize=0;edgeStyle=orthogonalEdgeStyle;startArrow=none;;endArrow=block;endFill=1;;exitX=0.5;exitY=1.025;exitPerimeter=1;entryX=0.499999999999999;entryY=-0.025000000000000005;entryPerimeter=1;fontFamily=Helvetica;" edge="1" parent="1" source="2cqHmMZ8rJubDwZYxFgL-6" target="2cqHmMZ8rJubDwZYxFgL-12">
            <mxGeometry width="100" height="100" relative="1" as="geometry">
              <Array as="points" />
            </mxGeometry>
          </mxCell>
        </UserObject>
        <UserObject label="" lucidchartObjectId="MljCg8tNtDKG" id="2cqHmMZ8rJubDwZYxFgL-9">
          <mxCell style="html=1;jettySize=18;whiteSpace=wrap;fontSize=13;strokeColor=#494949;strokeWidth=2;rounded=1;arcSize=0;edgeStyle=orthogonalEdgeStyle;startArrow=none;;endArrow=block;endFill=1;;exitX=0.49999999999999895;exitY=1.0250000000000001;exitPerimeter=1;entryX=0.5;entryY=-0.02475247524752474;entryPerimeter=1;fontFamily=Helvetica;" edge="1" parent="1" source="2cqHmMZ8rJubDwZYxFgL-12" target="2cqHmMZ8rJubDwZYxFgL-10">
            <mxGeometry width="100" height="100" relative="1" as="geometry">
              <Array as="points" />
            </mxGeometry>
          </mxCell>
        </UserObject>
        <UserObject label="&lt;div style=&quot;text-align: center ; font-size: 13px&quot;&gt;&lt;span style=&quot;font-size: 13px ; color: rgb(61 , 71 , 82)&quot;&gt;Servlet Filter&lt;/span&gt;&lt;span style=&quot;font-size: 13px ; color: rgb(61 , 71 , 82)&quot;&gt;&lt;sup&gt;1)&lt;/sup&gt;&lt;/span&gt;&lt;span style=&quot;font-size: 13px ; color: rgb(61 , 71 , 82)&quot;&gt;에서  Request 받음&lt;/span&gt;&lt;/div&gt;" lucidchartObjectId="RljCIr4hiA4D" id="2cqHmMZ8rJubDwZYxFgL-10">
          <mxCell style="html=1;whiteSpace=wrap;;whiteSpace=wrap;overflow=width;spacing=7;strokeColor=#3d4752;strokeOpacity=100;fillOpacity=100;shadow=1;fillColor=#ffffff;strokeWidth=2;fontFamily=Helvetica;fontSize=13;" vertex="1" zOrder="117" parent="1">
            <mxGeometry x="866.75" y="233" width="138" height="48" as="geometry" />
          </mxCell>
        </UserObject>
        <UserObject label="&lt;div style=&quot;text-align: left ; font-size: 13px&quot;&gt;&lt;b&gt;&lt;span style=&quot;font-size: 13px&quot;&gt;&amp;nbsp;1) Servlet Filter&lt;/span&gt;&lt;span style=&quot;font-size: 13px&quot;&gt;&lt;br&gt;&lt;/span&gt;&lt;/b&gt;&lt;span style=&quot;font-size: 13px&quot;&gt;&amp;nbsp;사용자 요청에 대해서 최초에 대응하는 지점으로&amp;nbsp; &lt;br&gt;&amp;nbsp;어플리케이션이 작동하기 전에 조치 되는 지점&lt;/span&gt;&lt;/div&gt;" lucidchartObjectId="JpjCstiGyX~z" id="2cqHmMZ8rJubDwZYxFgL-11">
          <mxCell style="html=1;whiteSpace=wrap;;whiteSpace=wrap;overflow=width;spacing=3;strokeColor=#6c8ebf;strokeOpacity=100;fillOpacity=100;shadow=1;fillColor=#dae8fc;strokeWidth=1;fontFamily=Helvetica;fontSize=13;spacingTop=3;spacingLeft=3;spacingBottom=3;spacingRight=3;" vertex="1" zOrder="119" parent="1">
            <mxGeometry x="1215.75" y="32" width="290" height="50" as="geometry" />
          </mxCell>
        </UserObject>
        <UserObject label="사용자 Request&lt;br&gt;(URL 호출)" lucidchartObjectId="TujC~g_oZXIJ" id="2cqHmMZ8rJubDwZYxFgL-12">
          <mxCell style="html=1;whiteSpace=wrap;shape=parallelogram;perimeter=parallelogramPerimeter;anchorPointDirection=0;whiteSpace=wrap;fontSize=13;fontColor=#3d4752;align=center;spacing=3;strokeColor=#3d4752;strokeOpacity=100;fillOpacity=100;shadow=1;fillColor=#ffffff;strokeWidth=2;fontFamily=Helvetica;size=0.046875;" vertex="1" zOrder="120" parent="1">
            <mxGeometry x="875.75" y="137" width="120" height="48" as="geometry" />
          </mxCell>
        </UserObject>
        <UserObject label="" lucidchartObjectId="4wjC2Nvqs22q" id="2cqHmMZ8rJubDwZYxFgL-13">
          <mxCell style="html=1;jettySize=18;whiteSpace=wrap;fontSize=13;strokeColor=#494949;strokeWidth=2;rounded=1;arcSize=0;edgeStyle=orthogonalEdgeStyle;startArrow=none;;endArrow=block;endFill=1;;exitX=0.5;exitY=1.0247524752475243;exitPerimeter=1;entryX=0.5;entryY=-0.01666666666666666;entryPerimeter=1;fontFamily=Helvetica;" edge="1" parent="1" source="2cqHmMZ8rJubDwZYxFgL-10" target="2cqHmMZ8rJubDwZYxFgL-14">
            <mxGeometry width="100" height="100" relative="1" as="geometry">
              <Array as="points" />
            </mxGeometry>
          </mxCell>
        </UserObject>
        <UserObject label="캐시를 위한 &lt;br&gt;Request 저장,&lt;br&gt;신규 Response 생성" lucidchartObjectId="9wjCrJWjo55z" id="2cqHmMZ8rJubDwZYxFgL-14">
          <mxCell style="html=1;whiteSpace=wrap;shape=hexagon;perimeter=hexagonPerimeter2;whiteSpace=wrap;fontSize=13;fontColor=#3d4752;align=center;spacing=3;strokeColor=#3d4752;strokeOpacity=100;fillOpacity=100;shadow=1;fillColor=#ffffff;strokeWidth=2;fontFamily=Helvetica;size=0;" vertex="1" zOrder="122" parent="1">
            <mxGeometry x="866.75" y="353" width="138" height="72" as="geometry" />
          </mxCell>
        </UserObject>
        <UserObject label="FilterChain#doFilter(...)" lucidchartObjectId="oxjCXyeeNdiK" id="2cqHmMZ8rJubDwZYxFgL-15">
          <mxCell style="html=1;whiteSpace=wrap;;whiteSpace=wrap;fontSize=13;fontColor=#3d4752;align=left;spacing=3;verticalAlign=bottom;strokeColor=none;fillOpacity=0;fillColor=#ffffff;strokeWidth=0;fontFamily=Helvetica;" vertex="1" zOrder="123" parent="1">
            <mxGeometry x="942.75" y="212" width="144" height="18" as="geometry" />
          </mxCell>
        </UserObject>
        <UserObject label="&lt;div style=&quot;font-size: 13px;&quot;&gt;&lt;span style=&quot;font-size: 13px; color: rgb(61, 71, 82);&quot;&gt;FilterChain#beforeDoFilter(...)&#xa;&lt;/span&gt;&lt;/div&gt;&lt;div style=&quot;font-size: 13px;&quot;&gt;&lt;span style=&quot;font-size: 13px; color: rgb(61, 71, 82);&quot;&gt;#createProceddingTask(long)&lt;/span&gt;&lt;/div&gt;" lucidchartObjectId="8zjCdAH0eZe5" id="2cqHmMZ8rJubDwZYxFgL-16">
          <mxCell style="html=1;whiteSpace=wrap;;whiteSpace=wrap;overflow=width;spacing=3;verticalAlign=bottom;strokeColor=none;fillOpacity=0;fillColor=#ffffff;strokeWidth=0;fontFamily=Helvetica;fontSize=13;align=left;" vertex="1" zOrder="124" parent="1">
            <mxGeometry x="942.75" y="307" width="191" height="39" as="geometry" />
          </mxCell>
        </UserObject>
        <UserObject label="" lucidchartObjectId="tFjCNUBskgUC" id="2cqHmMZ8rJubDwZYxFgL-17">
          <mxCell style="html=1;jettySize=18;whiteSpace=wrap;fontSize=13;strokeColor=#494949;strokeWidth=2;rounded=1;arcSize=0;edgeStyle=orthogonalEdgeStyle;startArrow=none;;endArrow=block;endFill=1;;exitX=1.0109571351718465;exitY=0.4999999999999998;exitPerimeter=1;entryX=-0.020030840419243075;entryY=0.5;entryPerimeter=1;fontFamily=Helvetica;" edge="1" parent="1" source="2cqHmMZ8rJubDwZYxFgL-14" target="2cqHmMZ8rJubDwZYxFgL-18">
            <mxGeometry width="100" height="100" relative="1" as="geometry">
              <Array as="points" />
            </mxGeometry>
          </mxCell>
        </UserObject>
        <UserObject label="설정된 캐시&lt;br&gt;&amp;nbsp;사용 여부" lucidchartObjectId="vFjC_WtNV4VZ" id="2cqHmMZ8rJubDwZYxFgL-18">
          <mxCell style="html=1;whiteSpace=wrap;rhombus;whiteSpace=wrap;fontSize=13;fontColor=#3d4752;align=center;spacing=3;strokeColor=#3d4752;strokeOpacity=100;fillOpacity=100;shadow=1;fillColor=#ffffff;strokeWidth=2;fontFamily=Helvetica;" vertex="1" zOrder="126" parent="1">
            <mxGeometry x="1049.75" y="353" width="108" height="72" as="geometry" />
          </mxCell>
        </UserObject>
        <UserObject label="사용자에게 &#xa;Response 전달 " lucidchartObjectId="IKjCDdE4kp2Y" id="2cqHmMZ8rJubDwZYxFgL-19">
          <mxCell style="html=1;whiteSpace=wrap;shape=parallelogram;perimeter=parallelogramPerimeter;anchorPointDirection=0;whiteSpace=wrap;fontSize=13;fontColor=#3d4752;align=center;spacing=3;strokeColor=#3d4752;strokeOpacity=100;fillOpacity=100;shadow=1;fillColor=#ffffff;strokeWidth=2;fontFamily=Helvetica;" vertex="1" zOrder="130" parent="1">
            <mxGeometry x="857.75" y="892" width="156" height="48" as="geometry" />
          </mxCell>
        </UserObject>
        <UserObject label="저장된 Request, 생성된 Response 제거" lucidchartObjectId="2KjCXK4i5H0G" id="2cqHmMZ8rJubDwZYxFgL-20">
          <mxCell style="html=1;whiteSpace=wrap;shape=process;whiteSpace=wrap;fontSize=13;fontColor=#3d4752;align=center;spacing=3;strokeColor=#3d4752;strokeOpacity=100;fillOpacity=100;shadow=1;fillColor=#ffffff;strokeWidth=2;fontFamily=Helvetica;" vertex="1" zOrder="131" parent="1">
            <mxGeometry x="854.25" y="1005" width="171" height="72" as="geometry" />
          </mxCell>
        </UserObject>
        <UserObject label="&lt;div style=&quot;font-size: 13px;&quot;&gt;&lt;span style=&quot;font-size: 13px; color: rgb(61, 71, 82);&quot;&gt;FilterChain&#xa;&lt;/span&gt;&lt;/div&gt;&lt;div style=&quot;font-size: 13px;&quot;&gt;&lt;span style=&quot;font-size: 13px; color: rgb(61, 71, 82);&quot;&gt;#afterDoFilter(CacheService)&lt;/span&gt;&lt;/div&gt;" lucidchartObjectId="TLjCl6FXTX38" id="2cqHmMZ8rJubDwZYxFgL-21">
          <mxCell style="html=1;whiteSpace=wrap;;whiteSpace=wrap;overflow=width;spacing=3;verticalAlign=bottom;strokeColor=none;fillOpacity=0;fillColor=#ffffff;strokeWidth=0;fontFamily=Helvetica;fontSize=13;align=left;" vertex="1" zOrder="132" parent="1">
            <mxGeometry x="952.75" y="932" width="201" height="46" as="geometry" />
          </mxCell>
        </UserObject>
        <UserObject label="" lucidchartObjectId="cOjC0NQ5l8aR" id="2cqHmMZ8rJubDwZYxFgL-22">
          <mxCell style="html=1;jettySize=18;whiteSpace=wrap;fontSize=13;strokeColor=#494949;strokeWidth=2;rounded=1;arcSize=0;edgeStyle=orthogonalEdgeStyle;startArrow=none;;endArrow=block;endFill=1;;exitX=0.5245420287653106;exitY=1.025;exitPerimeter=1;entryX=0.5;entryY=-0.01666666666666666;entryPerimeter=1;fontFamily=Helvetica;" edge="1" parent="1" source="2cqHmMZ8rJubDwZYxFgL-19" target="2cqHmMZ8rJubDwZYxFgL-20">
            <mxGeometry width="100" height="100" relative="1" as="geometry">
              <Array as="points" />
            </mxGeometry>
          </mxCell>
        </UserObject>
        <UserObject label="" lucidchartObjectId="1OjCobEnBY2R" id="2cqHmMZ8rJubDwZYxFgL-23">
          <mxCell style="html=1;jettySize=18;whiteSpace=wrap;fontSize=13;strokeColor=#494949;strokeWidth=2;rounded=1;arcSize=0;edgeStyle=orthogonalEdgeStyle;startArrow=none;;endArrow=block;endFill=1;;exitX=0.5;exitY=1.0166666666666662;exitPerimeter=1;entryX=0.5000000000000003;entryY=-0.025;entryPerimeter=1;fontFamily=Helvetica;" edge="1" parent="1" source="2cqHmMZ8rJubDwZYxFgL-20" target="2cqHmMZ8rJubDwZYxFgL-7">
            <mxGeometry width="100" height="100" relative="1" as="geometry">
              <Array as="points" />
            </mxGeometry>
          </mxCell>
        </UserObject>
        <UserObject label="" lucidchartObjectId="gPjCLnq6fwaG" id="2cqHmMZ8rJubDwZYxFgL-24">
          <mxCell style="html=1;jettySize=18;whiteSpace=wrap;fontSize=13;fontColor=#3d4752;align=center;strokeColor=#494949;strokeWidth=2;rounded=1;arcSize=0;edgeStyle=orthogonalEdgeStyle;startArrow=none;;endArrow=block;endFill=1;;exitX=0.5;exitY=1.0200308404192442;exitPerimeter=1;entryX=0.5;entryY=0;fontFamily=Helvetica;entryDx=0;entryDy=0;" edge="1" parent="1" target="2cqHmMZ8rJubDwZYxFgL-19">
            <mxGeometry width="100" height="100" relative="1" as="geometry">
              <Array as="points">
                <mxPoint x="1103.75" y="583" />
                <mxPoint x="935.75" y="583" />
              </Array>
              <mxPoint x="1103.75" y="425" as="sourcePoint" />
              <mxPoint x="935.75" y="772" as="targetPoint" />
            </mxGeometry>
          </mxCell>
        </UserObject>
        <mxCell id="2cqHmMZ8rJubDwZYxFgL-25" value="N" style="text;html=1;resizable=0;labelBackgroundColor=#ffffff;align=center;verticalAlign=middle;fontColor=#3d4752;;fontSize=13;fontFamily=Helvetica;" vertex="1" parent="2cqHmMZ8rJubDwZYxFgL-24">
          <mxGeometry x="-0.8421541920503852" relative="1" as="geometry">
            <mxPoint y="-18" as="offset" />
          </mxGeometry>
        </mxCell>
        <UserObject label="" lucidchartObjectId="mRjCTHafttst" id="2cqHmMZ8rJubDwZYxFgL-26">
          <mxCell style="html=1;jettySize=18;whiteSpace=wrap;fontSize=13;fontColor=#3d4752;align=center;strokeColor=#494949;strokeWidth=2;rounded=1;arcSize=0;edgeStyle=orthogonalEdgeStyle;startArrow=none;;endArrow=block;endFill=1;;exitX=1.020030840419243;exitY=0.5;exitPerimeter=1;entryX=-0.0125;entryY=0.5;entryPerimeter=1;fontFamily=Helvetica;" edge="1" parent="1" source="2cqHmMZ8rJubDwZYxFgL-18" target="2cqHmMZ8rJubDwZYxFgL-28">
            <mxGeometry width="100" height="100" relative="1" as="geometry">
              <Array as="points" />
            </mxGeometry>
          </mxCell>
        </UserObject>
        <mxCell id="2cqHmMZ8rJubDwZYxFgL-27" value="Y" style="text;html=1;resizable=0;labelBackgroundColor=#ffffff;align=center;verticalAlign=middle;fontColor=#3d4752;;fontSize=13;fontFamily=Helvetica;" vertex="1" parent="2cqHmMZ8rJubDwZYxFgL-26">
          <mxGeometry relative="1" as="geometry" />
        </mxCell>
        <UserObject label="캐시 키 생성" lucidchartObjectId="oRjCTuPeWTr6" id="2cqHmMZ8rJubDwZYxFgL-28">
          <mxCell style="html=1;whiteSpace=wrap;;whiteSpace=wrap;fontSize=13;fontColor=#3d4752;align=center;spacing=7;strokeColor=#3d4752;strokeOpacity=100;fillOpacity=100;shadow=1;fillColor=#ffffff;strokeWidth=2;fontFamily=Helvetica;" vertex="1" zOrder="138" parent="1">
            <mxGeometry x="1206.75" y="370" width="100" height="40" as="geometry" />
          </mxCell>
        </UserObject>
        <UserObject label="" lucidchartObjectId="1SjCCOW9XIzx" id="2cqHmMZ8rJubDwZYxFgL-29">
          <mxCell style="html=1;jettySize=18;whiteSpace=wrap;fontSize=13;strokeColor=#494949;strokeWidth=2;rounded=1;arcSize=0;edgeStyle=orthogonalEdgeStyle;startArrow=none;;endArrow=block;endFill=1;;exitX=0.5;exitY=1.0166666666666666;exitPerimeter=1;entryX=0.5;entryY=0;fontFamily=Helvetica;entryDx=0;entryDy=0;" edge="1" parent="1" source="2cqHmMZ8rJubDwZYxFgL-28" target="2cqHmMZ8rJubDwZYxFgL-32">
            <mxGeometry width="100" height="100" relative="1" as="geometry">
              <Array as="points" />
            </mxGeometry>
          </mxCell>
        </UserObject>
        <UserObject label="&lt;div style=&quot;font-size: 13px;&quot;&gt;&lt;span style=&quot;font-size: 13px; color: rgb(61, 71, 82);&quot;&gt;CacheStrategy&#xa;&lt;/span&gt;&lt;/div&gt;&lt;div style=&quot;font-size: 13px;&quot;&gt;&lt;span style=&quot;font-size: 13px; color: rgb(61, 71, 82);&quot;&gt;#doCache(ProceddingTask)&lt;/span&gt;&lt;/div&gt;" lucidchartObjectId="DTjCcWt_Cx8J" id="2cqHmMZ8rJubDwZYxFgL-30">
          <mxCell style="html=1;whiteSpace=wrap;;whiteSpace=wrap;overflow=width;spacing=3;verticalAlign=bottom;strokeColor=none;fillOpacity=0;fillColor=#ffffff;strokeWidth=0;fontFamily=Helvetica;fontSize=13;align=left;" vertex="1" zOrder="141" parent="1">
            <mxGeometry x="1206.75" y="320" width="201" height="46" as="geometry" />
          </mxCell>
        </UserObject>
        <UserObject label="캐시 데이터 존재" lucidchartObjectId="yckCkDr-31gp" id="2cqHmMZ8rJubDwZYxFgL-34">
          <mxCell style="html=1;whiteSpace=wrap;rhombus;whiteSpace=wrap;fontSize=13;fontColor=#3d4752;align=center;spacing=3;strokeColor=#3d4752;strokeOpacity=100;fillOpacity=100;shadow=1;fillColor=#ffffff;strokeWidth=2;fontFamily=Helvetica;" vertex="1" zOrder="148" parent="1">
            <mxGeometry x="1196.75" y="656" width="120" height="62" as="geometry" />
          </mxCell>
        </UserObject>
        <UserObject label="" lucidchartObjectId="odkC0-tG-mJJ" id="2cqHmMZ8rJubDwZYxFgL-35">
          <mxCell style="html=1;jettySize=18;whiteSpace=wrap;fontSize=13;fontColor=#3d4752;align=center;strokeColor=#494949;strokeWidth=2;rounded=1;arcSize=0;edgeStyle=orthogonalEdgeStyle;startArrow=none;;endArrow=block;endFill=1;;exitX=0.5;exitY=1.0218747997955244;exitPerimeter=1;entryX=0.5;entryY=0;fontFamily=Helvetica;entryDx=0;entryDy=0;" edge="1" parent="1" source="2cqHmMZ8rJubDwZYxFgL-34" target="2cqHmMZ8rJubDwZYxFgL-41">
            <mxGeometry width="100" height="100" relative="1" as="geometry">
              <Array as="points" />
            </mxGeometry>
          </mxCell>
        </UserObject>
        <mxCell id="2cqHmMZ8rJubDwZYxFgL-36" value="Y" style="text;html=1;resizable=0;labelBackgroundColor=#ffffff;align=center;verticalAlign=middle;fontColor=#3d4752;;fontSize=13;fontFamily=Helvetica;" vertex="1" parent="2cqHmMZ8rJubDwZYxFgL-35">
          <mxGeometry relative="1" as="geometry">
            <mxPoint x="-1" y="-5" as="offset" />
          </mxGeometry>
        </mxCell>
        <UserObject label="" lucidchartObjectId="UdkCEwU-wwJv" id="2cqHmMZ8rJubDwZYxFgL-37">
          <mxCell style="html=1;jettySize=18;whiteSpace=wrap;fontSize=13;fontColor=#3d4752;align=center;strokeColor=#494949;strokeWidth=2;rounded=1;arcSize=0;edgeStyle=orthogonalEdgeStyle;startArrow=none;;endArrow=block;endFill=1;;exitX=1.0218747997958522;exitY=0.4999999999999082;exitPerimeter=1;fontFamily=Helvetica;entryX=0;entryY=0.5;entryDx=0;entryDy=0;" edge="1" parent="1" source="2cqHmMZ8rJubDwZYxFgL-34" target="2cqHmMZ8rJubDwZYxFgL-47">
            <mxGeometry width="100" height="100" relative="1" as="geometry">
              <Array as="points" />
              <mxPoint x="1363.75" y="687" as="targetPoint" />
            </mxGeometry>
          </mxCell>
        </UserObject>
        <mxCell id="2cqHmMZ8rJubDwZYxFgL-38" value="N" style="text;html=1;resizable=0;labelBackgroundColor=#ffffff;align=center;verticalAlign=middle;fontColor=#3d4752;;fontSize=13;fontFamily=Helvetica;" vertex="1" parent="2cqHmMZ8rJubDwZYxFgL-37">
          <mxGeometry relative="1" as="geometry">
            <mxPoint x="-5.430000000000001" as="offset" />
          </mxGeometry>
        </mxCell>
        <UserObject label="캐시 데이터&lt;br&gt;역직렬화&lt;sup&gt;2)&lt;/sup&gt; 수행" lucidchartObjectId="oRjCTuPeWTr6" id="2cqHmMZ8rJubDwZYxFgL-41">
          <mxCell style="html=1;whiteSpace=wrap;;whiteSpace=wrap;fontSize=13;fontColor=#3d4752;align=center;spacing=7;strokeColor=#3d4752;strokeOpacity=100;fillOpacity=100;shadow=1;fillColor=#ffffff;strokeWidth=2;fontFamily=Helvetica;" vertex="1" zOrder="138" parent="1">
            <mxGeometry x="1206.75" y="758" width="100" height="60" as="geometry" />
          </mxCell>
        </UserObject>
        <UserObject label="&lt;div style=&quot;font-size: 13px&quot;&gt;&lt;b&gt;&lt;span style=&quot;font-size: 13px&quot;&gt;&amp;nbsp;2) 직렬화/역직렬화&lt;/span&gt;&lt;span style=&quot;font-size: 13px&quot;&gt;&lt;br&gt;&lt;div&gt;&lt;span style=&quot;font-weight: normal&quot;&gt;&amp;nbsp;메모리에 존재하는 데이터를 기타 장치(보조디스크, 네트웍 등등)로 전달하기 위해서 보존 가능한 포맷으로 변형하는 것을 직렬화, 변형된 포맷을 되돌리는 것을 역직렬화라고 함&lt;/span&gt;&lt;/div&gt;&lt;/span&gt;&lt;/b&gt;&lt;/div&gt;" lucidchartObjectId="JpjCstiGyX~z" id="2cqHmMZ8rJubDwZYxFgL-46">
          <mxCell style="html=1;whiteSpace=wrap;;whiteSpace=wrap;overflow=width;spacing=3;strokeColor=#6c8ebf;strokeOpacity=100;fillOpacity=100;shadow=1;fillColor=#dae8fc;strokeWidth=1;fontFamily=Helvetica;fontSize=13;spacingTop=3;spacingLeft=3;spacingBottom=3;spacingRight=3;align=left;" vertex="1" zOrder="119" parent="1">
            <mxGeometry x="1215.75" y="82" width="290" height="90" as="geometry" />
          </mxCell>
        </UserObject>
        <UserObject label="어플리케이션 기능 실행" lucidchartObjectId="oRjCTuPeWTr6" id="2cqHmMZ8rJubDwZYxFgL-47">
          <mxCell style="html=1;whiteSpace=wrap;;whiteSpace=wrap;fontSize=13;fontColor=#3d4752;align=center;spacing=7;strokeColor=#3d4752;strokeOpacity=100;fillOpacity=100;shadow=1;fillColor=#ffffff;strokeWidth=2;fontFamily=Helvetica;" vertex="1" zOrder="138" parent="1">
            <mxGeometry x="1395.75" y="656" width="100" height="60" as="geometry" />
          </mxCell>
        </UserObject>
        <UserObject label="&lt;div&gt;&lt;font color=&quot;#3d4752&quot;&gt;ProceddingTask&lt;br&gt;#proceed()&lt;/font&gt;&lt;br&gt;&lt;/div&gt;" lucidchartObjectId="YUjC1emWhcxq" id="2cqHmMZ8rJubDwZYxFgL-49">
          <mxCell style="html=1;whiteSpace=wrap;;whiteSpace=wrap;overflow=width;spacing=3;verticalAlign=bottom;strokeColor=none;fillOpacity=0;fillColor=#ffffff;strokeWidth=0;fontFamily=Helvetica;fontSize=13;align=right;" vertex="1" zOrder="145" parent="1">
            <mxGeometry x="1395.75" y="617" width="100" height="34" as="geometry" />
          </mxCell>
        </UserObject>
        <UserObject label="" lucidchartObjectId="1bkCjDzA6spA" id="2cqHmMZ8rJubDwZYxFgL-51">
          <mxCell style="html=1;jettySize=18;whiteSpace=wrap;fontSize=13;strokeColor=#494949;strokeWidth=2;rounded=1;arcSize=0;edgeStyle=orthogonalEdgeStyle;startArrow=none;;endArrow=block;endFill=1;;exitX=0;exitY=0.5;entryX=1;entryY=0.5;fontFamily=Helvetica;exitDx=0;exitDy=0;entryDx=0;entryDy=0;" edge="1" parent="1" source="2cqHmMZ8rJubDwZYxFgL-61" target="2cqHmMZ8rJubDwZYxFgL-41">
            <mxGeometry width="100" height="100" relative="1" as="geometry">
              <Array as="points" />
              <mxPoint x="1265.75" y="635" as="sourcePoint" />
              <mxPoint x="1255.75" y="848" as="targetPoint" />
            </mxGeometry>
          </mxCell>
        </UserObject>
        <UserObject label="캐시 서버 인증&amp;nbsp;" lucidchartObjectId="yckCkDr-31gp" id="2cqHmMZ8rJubDwZYxFgL-53">
          <mxCell style="html=1;whiteSpace=wrap;rhombus;whiteSpace=wrap;fontSize=13;fontColor=#3d4752;align=center;spacing=3;strokeColor=#3d4752;strokeOpacity=100;fillOpacity=100;shadow=1;fillColor=#ffffff;strokeWidth=2;fontFamily=Helvetica;" vertex="1" zOrder="148" parent="1">
            <mxGeometry x="1196.75" y="552" width="120" height="62" as="geometry" />
          </mxCell>
        </UserObject>
        <UserObject label="" lucidchartObjectId="odkC0-tG-mJJ" id="2cqHmMZ8rJubDwZYxFgL-55">
          <mxCell style="html=1;jettySize=18;whiteSpace=wrap;fontSize=13;fontColor=#3d4752;align=center;strokeColor=#494949;strokeWidth=2;rounded=1;arcSize=0;edgeStyle=orthogonalEdgeStyle;startArrow=none;;endArrow=block;endFill=1;;exitX=0.5;exitY=1;entryX=0.5;entryY=0;fontFamily=Helvetica;entryDx=0;entryDy=0;exitDx=0;exitDy=0;" edge="1" parent="1" source="2cqHmMZ8rJubDwZYxFgL-53" target="2cqHmMZ8rJubDwZYxFgL-34">
            <mxGeometry width="100" height="100" relative="1" as="geometry">
              <Array as="points" />
              <mxPoint x="1267.75" y="728" as="sourcePoint" />
              <mxPoint x="1267.75" y="768" as="targetPoint" />
            </mxGeometry>
          </mxCell>
        </UserObject>
        <mxCell id="2cqHmMZ8rJubDwZYxFgL-56" value="Y" style="text;html=1;resizable=0;labelBackgroundColor=#ffffff;align=center;verticalAlign=middle;fontColor=#3d4752;;fontSize=13;fontFamily=Helvetica;" vertex="1" parent="2cqHmMZ8rJubDwZYxFgL-55">
          <mxGeometry relative="1" as="geometry">
            <mxPoint x="-1" y="-5" as="offset" />
          </mxGeometry>
        </mxCell>
        <UserObject label="" lucidchartObjectId="1SjCCOW9XIzx" id="2cqHmMZ8rJubDwZYxFgL-57">
          <mxCell style="html=1;jettySize=18;whiteSpace=wrap;fontSize=13;strokeColor=#494949;strokeWidth=2;rounded=1;arcSize=0;edgeStyle=orthogonalEdgeStyle;startArrow=none;;endArrow=block;endFill=1;;exitX=0.5;exitY=1;entryX=0.5;entryY=0;fontFamily=Helvetica;entryDx=0;entryDy=0;exitDx=0;exitDy=0;" edge="1" parent="1" source="2cqHmMZ8rJubDwZYxFgL-32" target="2cqHmMZ8rJubDwZYxFgL-53">
            <mxGeometry width="100" height="100" relative="1" as="geometry">
              <Array as="points" />
              <mxPoint x="1266.75" y="435" as="sourcePoint" />
              <mxPoint x="1266.75" y="483" as="targetPoint" />
            </mxGeometry>
          </mxCell>
        </UserObject>
        <UserObject label="" lucidchartObjectId="gPjCLnq6fwaG" id="2cqHmMZ8rJubDwZYxFgL-58">
          <mxCell style="html=1;jettySize=18;whiteSpace=wrap;fontSize=13;fontColor=#3d4752;align=center;strokeColor=#494949;strokeWidth=2;rounded=1;arcSize=0;edgeStyle=orthogonalEdgeStyle;startArrow=none;;endArrow=block;endFill=1;;exitX=0;exitY=0.5;fontFamily=Helvetica;exitDx=0;exitDy=0;entryX=0.5;entryY=0;entryDx=0;entryDy=0;" edge="1" parent="1" source="2cqHmMZ8rJubDwZYxFgL-53" target="2cqHmMZ8rJubDwZYxFgL-19">
            <mxGeometry width="100" height="100" relative="1" as="geometry">
              <Array as="points">
                <mxPoint x="935.75" y="583" />
              </Array>
              <mxPoint x="1113.75" y="435" as="sourcePoint" />
              <mxPoint x="995.75" y="672" as="targetPoint" />
            </mxGeometry>
          </mxCell>
        </UserObject>
        <mxCell id="2cqHmMZ8rJubDwZYxFgL-59" value="N" style="text;html=1;resizable=0;labelBackgroundColor=#ffffff;align=center;verticalAlign=middle;fontColor=#3d4752;;fontSize=13;fontFamily=Helvetica;" vertex="1" parent="2cqHmMZ8rJubDwZYxFgL-58">
          <mxGeometry x="-0.8421541920503852" relative="1" as="geometry">
            <mxPoint x="14.71" as="offset" />
          </mxGeometry>
        </mxCell>
        <UserObject label="" lucidchartObjectId="1SjCCOW9XIzx" id="2cqHmMZ8rJubDwZYxFgL-60">
          <mxCell style="html=1;jettySize=18;whiteSpace=wrap;fontSize=13;strokeColor=#494949;strokeWidth=2;rounded=1;arcSize=0;edgeStyle=orthogonalEdgeStyle;startArrow=none;;endArrow=block;endFill=1;;exitX=0.5;exitY=1;entryX=0.5;entryY=0;fontFamily=Helvetica;entryDx=0;entryDy=0;exitDx=0;exitDy=0;" edge="1" parent="1" source="2cqHmMZ8rJubDwZYxFgL-47" target="2cqHmMZ8rJubDwZYxFgL-61">
            <mxGeometry width="100" height="100" relative="1" as="geometry">
              <Array as="points" />
              <mxPoint x="1266.75" y="532.0000000000002" as="sourcePoint" />
              <mxPoint x="1266.75" y="561.9999999999998" as="targetPoint" />
            </mxGeometry>
          </mxCell>
        </UserObject>
        <UserObject label="캐시 데이터&lt;br&gt;직렬화&lt;sup&gt;2)&lt;/sup&gt; 수행" lucidchartObjectId="oRjCTuPeWTr6" id="2cqHmMZ8rJubDwZYxFgL-61">
          <mxCell style="html=1;whiteSpace=wrap;;whiteSpace=wrap;fontSize=13;fontColor=#3d4752;align=center;spacing=7;strokeColor=#3d4752;strokeOpacity=100;fillOpacity=100;shadow=1;fillColor=#ffffff;strokeWidth=2;fontFamily=Helvetica;" vertex="1" zOrder="138" parent="1">
            <mxGeometry x="1395.75" y="758" width="100" height="60" as="geometry" />
          </mxCell>
        </UserObject>
        <mxCell id="2cqHmMZ8rJubDwZYxFgL-62" value="ClientService&lt;br&gt;#writeCacheRequestBuild(ProceddingTask)" style="text;whiteSpace=wrap;html=1;fontSize=13;fontFamily=Helvetica;verticalAlign=top;align=left;" vertex="1" parent="1">
          <mxGeometry x="1370" y="818" width="250" height="40" as="geometry" />
        </mxCell>
        <UserObject label="" lucidchartObjectId="1bkCjDzA6spA" id="2cqHmMZ8rJubDwZYxFgL-65">
          <mxCell style="html=1;jettySize=18;whiteSpace=wrap;fontSize=13;strokeColor=#494949;strokeWidth=2;rounded=1;arcSize=0;edgeStyle=orthogonalEdgeStyle;startArrow=none;;endArrow=block;endFill=1;;exitX=0.5;exitY=1;entryX=1;entryY=0.5;fontFamily=Helvetica;exitDx=0;exitDy=0;entryDx=0;entryDy=0;" edge="1" parent="1" source="2cqHmMZ8rJubDwZYxFgL-41" target="2cqHmMZ8rJubDwZYxFgL-19">
            <mxGeometry width="100" height="100" relative="1" as="geometry">
              <Array as="points">
                <mxPoint x="1257" y="916" />
              </Array>
              <mxPoint x="1405.75" y="798" as="sourcePoint" />
              <mxPoint x="1316.75" y="798" as="targetPoint" />
            </mxGeometry>
          </mxCell>
        </UserObject>
        <UserObject label="ClientService&lt;br&gt;#assignResponse(ProceddingTask)" link="kr.co.rian.apmax.client.ClientService#assignResponse" id="2cqHmMZ8rJubDwZYxFgL-66">
          <mxCell style="text;whiteSpace=wrap;html=1;fontSize=13;fontFamily=Helvetica;align=right;verticalAlign=top;spacing=0;" vertex="1" parent="1">
            <mxGeometry x="970.5" y="760" width="228.25" height="52" as="geometry" />
          </mxCell>
        </UserObject>
        <mxCell id="2cqHmMZ8rJubDwZYxFgL-85" value="" style="group" vertex="1" connectable="0" parent="1">
          <mxGeometry x="1181.75" y="415" width="285" height="97" as="geometry" />
        </mxCell>
        <UserObject label="&lt;div style=&quot;font-size: 13px;&quot;&gt;&lt;span style=&quot;font-size: 13px; color: rgb(61, 71, 82);&quot;&gt;ClientService&#xa;&lt;/span&gt;&lt;/div&gt;&lt;div style=&quot;font-size: 13px;&quot;&gt;&lt;span style=&quot;font-size: 13px; color: rgb(61, 71, 82);&quot;&gt;#sendRequest(ProceddingTask)&lt;/span&gt;&lt;/div&gt;" lucidchartObjectId="YUjC1emWhcxq" id="2cqHmMZ8rJubDwZYxFgL-31">
          <mxCell style="html=1;whiteSpace=wrap;;whiteSpace=wrap;overflow=width;spacing=3;verticalAlign=bottom;strokeColor=none;fillOpacity=0;fillColor=#ffffff;strokeWidth=0;fontFamily=Helvetica;fontSize=13;align=left;" vertex="1" zOrder="145" parent="2cqHmMZ8rJubDwZYxFgL-85">
            <mxGeometry x="84" width="201" height="46" as="geometry" />
          </mxCell>
        </UserObject>
        <UserObject label="캐시 서버에 요청" lucidchartObjectId="obkC6~sjYb19" id="2cqHmMZ8rJubDwZYxFgL-32">
          <mxCell style="html=1;whiteSpace=wrap;shape=parallelogram;perimeter=parallelogramPerimeter;anchorPointDirection=0;whiteSpace=wrap;fontSize=13;fontColor=#3d4752;align=center;spacing=3;strokeColor=#3d4752;strokeOpacity=100;fillOpacity=100;shadow=1;fillColor=#ffffff;strokeWidth=2;fontFamily=Helvetica;" vertex="1" zOrder="146" parent="2cqHmMZ8rJubDwZYxFgL-85">
            <mxGeometry y="48" width="150" height="49" as="geometry" />
          </mxCell>
        </UserObject>
        <mxCell id="cP74z0sXbnIp1EFZRAgH-1" value="" style="group" vertex="1" connectable="0" parent="1">
          <mxGeometry x="1310" y="915" width="132" height="20" as="geometry" />
        </mxCell>
        <mxCell id="2cqHmMZ8rJubDwZYxFgL-63" value="&lt;font style=&quot;font-size: 16px&quot;&gt;오류 발생시&lt;/font&gt;" style="text;html=1;strokeColor=none;fillColor=none;align=center;verticalAlign=middle;whiteSpace=wrap;rounded=0;shadow=1;fontFamily=Helvetica;fontSize=13;fontStyle=1" vertex="1" parent="cP74z0sXbnIp1EFZRAgH-1">
          <mxGeometry width="93.25" height="20" as="geometry" />
        </mxCell>
        <UserObject label="" lucidchartObjectId="8.jCLe8taDWW" id="2cqHmMZ8rJubDwZYxFgL-64">
          <mxCell style="html=1;jettySize=18;whiteSpace=wrap;fontSize=13;strokeColor=#7ab648;strokeOpacity=100;strokeWidth=1;rounded=1;arcSize=0;edgeStyle=orthogonalEdgeStyle;startArrow=none;;endArrow=none;endFill=0;;exitX=0.75;exitY=1;fontFamily=Helvetica;exitDx=0;exitDy=0;entryX=1;entryY=0.5;entryDx=0;entryDy=0;" edge="1" parent="cP74z0sXbnIp1EFZRAgH-1" source="2cqHmMZ8rJubDwZYxFgL-3" target="2cqHmMZ8rJubDwZYxFgL-63">
            <mxGeometry width="100" height="100" relative="1" as="geometry">
              <Array as="points">
                <mxPoint x="132" y="10" />
              </Array>
              <mxPoint x="-311.85000000000014" y="1" as="targetPoint" />
              <mxPoint x="-65" y="-55" as="sourcePoint" />
            </mxGeometry>
          </mxCell>
        </UserObject>
        <UserObject label="" lucidchartObjectId="8.jCLe8taDWW" id="2cqHmMZ8rJubDwZYxFgL-4">
          <mxCell style="html=1;jettySize=18;whiteSpace=wrap;fontSize=13;strokeColor=#7ab648;strokeOpacity=100;strokeWidth=1;rounded=1;arcSize=0;edgeStyle=orthogonalEdgeStyle;startArrow=none;;endArrow=block;endFill=1;;exitX=0;exitY=0.5;fontFamily=Helvetica;exitDx=0;exitDy=0;entryX=1;entryY=0.75;entryDx=0;entryDy=0;" edge="1" parent="1" source="2cqHmMZ8rJubDwZYxFgL-63" target="2cqHmMZ8rJubDwZYxFgL-19">
            <mxGeometry width="100" height="100" relative="1" as="geometry">
              <mxPoint x="-176" y="-201" as="targetPoint" />
            </mxGeometry>
          </mxCell>
        </UserObject>
      </root>
    </mxGraphModel>
  </diagram>
  <diagram id="lffR00yhORCMRe2HmN53" name="Agent DB 캐시">
    <mxGraphModel dx="-228" dy="939" grid="1" gridSize="10" guides="1" tooltips="1" connect="1" arrows="1" fold="1" page="1" pageScale="1" pageWidth="827" pageHeight="1169" math="0" shadow="0">
      <root>
        <mxCell id="TRfc0iN9wrIWuQNUJOql-0" />
        <mxCell id="TRfc0iN9wrIWuQNUJOql-1" parent="TRfc0iN9wrIWuQNUJOql-0" />
        <mxCell id="qcgbi3aQZdH7kGGuuUay-10" value="" style="rounded=1;whiteSpace=wrap;html=1;shadow=0;strokeWidth=1;fillColor=#E6FFCC;fontFamily=Helvetica;fontSize=13;align=right;strokeColor=none;gradientDirection=east;arcSize=4;textOpacity=40;opacity=70;" vertex="1" parent="TRfc0iN9wrIWuQNUJOql-1">
          <mxGeometry x="2120" y="578" width="240" height="412" as="geometry" />
        </mxCell>
        <UserObject label="DB 캐시 시작" lucidchartObjectId="UkjCKOFqEdq9" id="TRfc0iN9wrIWuQNUJOql-2">
          <mxCell style="html=1;whiteSpace=wrap;rounded=1;arcSize=50;whiteSpace=wrap;fontSize=13;fontColor=#3d4752;align=center;spacing=9;strokeColor=#3d4752;strokeOpacity=100;fillOpacity=100;shadow=1;fillColor=#ffdba9;strokeWidth=2;fontFamily=Helvetica;" vertex="1" zOrder="112" parent="TRfc0iN9wrIWuQNUJOql-1">
            <mxGeometry x="1826" y="41" width="108" height="48" as="geometry" />
          </mxCell>
        </UserObject>
        <UserObject label="DB 캐시 끝" lucidchartObjectId="UkjCKOFqEdq9" id="TRfc0iN9wrIWuQNUJOql-3">
          <mxCell style="html=1;whiteSpace=wrap;rounded=1;arcSize=50;whiteSpace=wrap;fontSize=13;fontColor=#3d4752;align=center;spacing=9;strokeColor=#3d4752;strokeOpacity=100;fillOpacity=100;shadow=1;fillColor=#ffdba9;strokeWidth=2;fontFamily=Helvetica;" vertex="1" zOrder="112" parent="TRfc0iN9wrIWuQNUJOql-1">
            <mxGeometry x="1826" y="1000" width="108" height="48" as="geometry" />
          </mxCell>
        </UserObject>
        <UserObject label="어플리케이션에서 DB Connection 을 요청" lucidchartObjectId="TujC~g_oZXIJ" id="TRfc0iN9wrIWuQNUJOql-4">
          <mxCell style="html=1;whiteSpace=wrap;shape=parallelogram;perimeter=parallelogramPerimeter;anchorPointDirection=0;whiteSpace=wrap;fontSize=13;fontColor=#3d4752;align=center;spacing=3;strokeColor=#3d4752;strokeOpacity=100;fillOpacity=100;shadow=1;fillColor=#ffffff;strokeWidth=2;fontFamily=Helvetica;size=0.046875;" vertex="1" zOrder="120" parent="TRfc0iN9wrIWuQNUJOql-1">
            <mxGeometry x="1800" y="150" width="160" height="60" as="geometry" />
          </mxCell>
        </UserObject>
        <UserObject label="캐시 활성화&lt;br&gt;여부" lucidchartObjectId="vFjC_WtNV4VZ" id="TRfc0iN9wrIWuQNUJOql-5">
          <mxCell style="html=1;whiteSpace=wrap;rhombus;whiteSpace=wrap;fontSize=13;fontColor=#3d4752;align=center;spacing=3;strokeColor=#3d4752;strokeOpacity=100;fillOpacity=100;shadow=1;fillColor=#ffffff;strokeWidth=2;fontFamily=Helvetica;" vertex="1" zOrder="126" parent="TRfc0iN9wrIWuQNUJOql-1">
            <mxGeometry x="1820" y="312" width="120" height="58" as="geometry" />
          </mxCell>
        </UserObject>
        <UserObject label="" lucidchartObjectId="gljCJS.0c2aK" id="TRfc0iN9wrIWuQNUJOql-6">
          <mxCell style="html=1;jettySize=18;whiteSpace=wrap;fontSize=13;strokeColor=#494949;strokeWidth=2;rounded=1;arcSize=0;edgeStyle=orthogonalEdgeStyle;startArrow=none;;endArrow=block;endFill=1;;exitX=0.5;exitY=1;fontFamily=Helvetica;exitDx=0;exitDy=0;entryX=0.5;entryY=0;entryDx=0;entryDy=0;" edge="1" parent="TRfc0iN9wrIWuQNUJOql-1" source="TRfc0iN9wrIWuQNUJOql-2" target="TRfc0iN9wrIWuQNUJOql-4">
            <mxGeometry width="100" height="100" relative="1" as="geometry">
              <Array as="points" />
              <mxPoint x="2017.92" y="172.0000000000001" as="sourcePoint" />
              <mxPoint x="1990" y="210" as="targetPoint" />
            </mxGeometry>
          </mxCell>
        </UserObject>
        <UserObject label="" lucidchartObjectId="gljCJS.0c2aK" id="TRfc0iN9wrIWuQNUJOql-7">
          <mxCell style="html=1;jettySize=18;whiteSpace=wrap;fontSize=13;strokeColor=#494949;strokeWidth=2;rounded=1;arcSize=0;edgeStyle=orthogonalEdgeStyle;startArrow=none;;endArrow=block;endFill=1;;exitX=0.5;exitY=1;fontFamily=Helvetica;exitDx=0;exitDy=0;entryX=0.5;entryY=0;entryDx=0;entryDy=0;" edge="1" parent="TRfc0iN9wrIWuQNUJOql-1" source="TRfc0iN9wrIWuQNUJOql-4" target="TRfc0iN9wrIWuQNUJOql-5">
            <mxGeometry width="100" height="100" relative="1" as="geometry">
              <Array as="points" />
              <mxPoint x="1879.83" y="242" as="sourcePoint" />
              <mxPoint x="1879.83" y="293" as="targetPoint" />
            </mxGeometry>
          </mxCell>
        </UserObject>
        <UserObject label="" lucidchartObjectId="gljCJS.0c2aK" id="TRfc0iN9wrIWuQNUJOql-8">
          <mxCell style="html=1;jettySize=18;whiteSpace=wrap;fontSize=13;strokeColor=#494949;strokeWidth=2;rounded=1;arcSize=0;edgeStyle=orthogonalEdgeStyle;startArrow=none;;endArrow=block;endFill=1;;exitX=0.25;exitY=1;fontFamily=Helvetica;exitDx=0;exitDy=0;entryX=0.5;entryY=0;entryDx=0;entryDy=0;" edge="1" parent="TRfc0iN9wrIWuQNUJOql-1" source="qcgbi3aQZdH7kGGuuUay-0" target="TRfc0iN9wrIWuQNUJOql-3">
            <mxGeometry width="100" height="100" relative="1" as="geometry">
              <Array as="points" />
              <mxPoint x="1880" y="721" as="sourcePoint" />
              <mxPoint x="1890" y="322" as="targetPoint" />
            </mxGeometry>
          </mxCell>
        </UserObject>
        <UserObject label="" lucidchartObjectId="gljCJS.0c2aK" id="TRfc0iN9wrIWuQNUJOql-9">
          <mxCell style="html=1;jettySize=18;whiteSpace=wrap;fontSize=13;strokeColor=#494949;strokeWidth=2;rounded=1;arcSize=0;edgeStyle=orthogonalEdgeStyle;startArrow=none;;endArrow=block;endFill=1;;exitX=0.5;exitY=1;fontFamily=Helvetica;exitDx=0;exitDy=0;entryX=0.25;entryY=0;entryDx=0;entryDy=0;" edge="1" parent="TRfc0iN9wrIWuQNUJOql-1" source="TRfc0iN9wrIWuQNUJOql-5" target="qcgbi3aQZdH7kGGuuUay-0">
            <mxGeometry width="100" height="100" relative="1" as="geometry">
              <Array as="points" />
              <mxPoint x="1880" y="370" as="sourcePoint" />
              <mxPoint x="1880" y="676" as="targetPoint" />
            </mxGeometry>
          </mxCell>
        </UserObject>
        <mxCell id="TRfc0iN9wrIWuQNUJOql-10" value="N" style="edgeLabel;html=1;align=center;verticalAlign=middle;resizable=0;points=[];fontSize=13;fontFamily=Helvetica;" vertex="1" connectable="0" parent="TRfc0iN9wrIWuQNUJOql-9">
          <mxGeometry x="-0.7705" y="-3" relative="1" as="geometry">
            <mxPoint x="1" y="-10" as="offset" />
          </mxGeometry>
        </mxCell>
        <UserObject label="" lucidchartObjectId="gljCJS.0c2aK" id="TRfc0iN9wrIWuQNUJOql-14">
          <mxCell style="html=1;jettySize=18;whiteSpace=wrap;fontSize=13;strokeColor=#494949;strokeWidth=2;rounded=1;arcSize=0;edgeStyle=orthogonalEdgeStyle;startArrow=none;;endArrow=block;endFill=1;;exitX=1;exitY=0.5;fontFamily=Helvetica;exitDx=0;exitDy=0;" edge="1" parent="TRfc0iN9wrIWuQNUJOql-1" source="TRfc0iN9wrIWuQNUJOql-5">
            <mxGeometry width="100" height="100" relative="1" as="geometry">
              <Array as="points" />
              <mxPoint x="1890" y="280" as="sourcePoint" />
              <mxPoint x="1999.9999999999995" y="341" as="targetPoint" />
            </mxGeometry>
          </mxCell>
        </UserObject>
        <mxCell id="TRfc0iN9wrIWuQNUJOql-15" value="Y" style="edgeLabel;html=1;align=center;verticalAlign=middle;resizable=0;points=[];fontSize=13;fontFamily=Helvetica;" vertex="1" connectable="0" parent="TRfc0iN9wrIWuQNUJOql-14">
          <mxGeometry x="-0.7489" y="1" relative="1" as="geometry">
            <mxPoint x="17.43" y="1" as="offset" />
          </mxGeometry>
        </mxCell>
        <UserObject label="서버와 연결&lt;br&gt;확인" lucidchartObjectId="vFjC_WtNV4VZ" id="N4ZEJ3vlMODPW_Wpf9w_-0">
          <mxCell style="html=1;whiteSpace=wrap;rhombus;whiteSpace=wrap;fontSize=13;fontColor=#3d4752;align=center;spacing=3;strokeColor=#3d4752;strokeOpacity=100;fillOpacity=100;shadow=1;fillColor=#ffffff;strokeWidth=2;fontFamily=Helvetica;" vertex="1" zOrder="126" parent="TRfc0iN9wrIWuQNUJOql-1">
            <mxGeometry x="2000" y="312" width="120" height="58" as="geometry" />
          </mxCell>
        </UserObject>
        <UserObject label="" lucidchartObjectId="gljCJS.0c2aK" id="N4ZEJ3vlMODPW_Wpf9w_-1">
          <mxCell style="html=1;jettySize=18;whiteSpace=wrap;fontSize=13;strokeColor=#494949;strokeWidth=2;rounded=1;arcSize=0;edgeStyle=orthogonalEdgeStyle;startArrow=none;;endArrow=block;endFill=1;;exitX=0.5;exitY=1;fontFamily=Helvetica;exitDx=0;exitDy=0;entryX=0.25;entryY=0;entryDx=0;entryDy=0;" edge="1" parent="TRfc0iN9wrIWuQNUJOql-1" source="N4ZEJ3vlMODPW_Wpf9w_-0" target="qcgbi3aQZdH7kGGuuUay-0">
            <mxGeometry width="100" height="100" relative="1" as="geometry">
              <Array as="points">
                <mxPoint x="2060" y="479" />
                <mxPoint x="1880" y="479" />
              </Array>
              <mxPoint x="1890" y="380" as="sourcePoint" />
              <mxPoint x="1880" y="676" as="targetPoint" />
            </mxGeometry>
          </mxCell>
        </UserObject>
        <mxCell id="N4ZEJ3vlMODPW_Wpf9w_-2" value="N" style="edgeLabel;html=1;align=center;verticalAlign=middle;resizable=0;points=[];fontSize=13;fontFamily=Helvetica;" vertex="1" connectable="0" parent="N4ZEJ3vlMODPW_Wpf9w_-1">
          <mxGeometry x="-0.7705" y="-3" relative="1" as="geometry">
            <mxPoint x="1" y="-30" as="offset" />
          </mxGeometry>
        </mxCell>
        <UserObject label="" lucidchartObjectId="gljCJS.0c2aK" id="N4ZEJ3vlMODPW_Wpf9w_-3">
          <mxCell style="html=1;jettySize=18;whiteSpace=wrap;fontSize=13;strokeColor=#494949;strokeWidth=2;rounded=1;arcSize=0;edgeStyle=orthogonalEdgeStyle;startArrow=none;;endArrow=block;endFill=1;;exitX=1;exitY=0.5;fontFamily=Helvetica;exitDx=0;exitDy=0;entryX=0;entryY=0.5;entryDx=0;entryDy=0;" edge="1" parent="TRfc0iN9wrIWuQNUJOql-1" target="N4ZEJ3vlMODPW_Wpf9w_-5">
            <mxGeometry width="100" height="100" relative="1" as="geometry">
              <Array as="points" />
              <mxPoint x="2120" y="340.8" as="sourcePoint" />
              <mxPoint x="2179.9999999999995" y="340.8" as="targetPoint" />
            </mxGeometry>
          </mxCell>
        </UserObject>
        <mxCell id="N4ZEJ3vlMODPW_Wpf9w_-4" value="Y" style="edgeLabel;html=1;align=center;verticalAlign=middle;resizable=0;points=[];fontSize=13;fontFamily=Helvetica;" vertex="1" connectable="0" parent="N4ZEJ3vlMODPW_Wpf9w_-3">
          <mxGeometry x="-0.7489" y="1" relative="1" as="geometry">
            <mxPoint x="17.43" y="1" as="offset" />
          </mxGeometry>
        </mxCell>
        <UserObject label="캐시 대상&lt;br&gt;여부" lucidchartObjectId="vFjC_WtNV4VZ" id="N4ZEJ3vlMODPW_Wpf9w_-5">
          <mxCell style="html=1;whiteSpace=wrap;rhombus;whiteSpace=wrap;fontSize=13;fontColor=#3d4752;align=center;spacing=3;strokeColor=#3d4752;strokeOpacity=100;fillOpacity=100;shadow=1;fillColor=#ffffff;strokeWidth=2;fontFamily=Helvetica;" vertex="1" zOrder="126" parent="TRfc0iN9wrIWuQNUJOql-1">
            <mxGeometry x="2180" y="312" width="120" height="58" as="geometry" />
          </mxCell>
        </UserObject>
        <UserObject label="" lucidchartObjectId="gljCJS.0c2aK" id="N4ZEJ3vlMODPW_Wpf9w_-7">
          <mxCell style="html=1;jettySize=18;whiteSpace=wrap;fontSize=13;strokeColor=#494949;strokeWidth=2;rounded=1;arcSize=0;edgeStyle=orthogonalEdgeStyle;startArrow=none;;endArrow=block;endFill=1;;exitX=0.5;exitY=1;fontFamily=Helvetica;exitDx=0;exitDy=0;entryX=0.5;entryY=0;entryDx=0;entryDy=0;" edge="1" parent="TRfc0iN9wrIWuQNUJOql-1" source="N4ZEJ3vlMODPW_Wpf9w_-5" target="16MPW3PXaVyT41rzRCR0-0">
            <mxGeometry width="100" height="100" relative="1" as="geometry">
              <Array as="points">
                <mxPoint x="2240" y="430" />
              </Array>
              <mxPoint x="2070" y="380.0000000000002" as="sourcePoint" />
              <mxPoint x="1890" y="686" as="targetPoint" />
            </mxGeometry>
          </mxCell>
        </UserObject>
        <mxCell id="16MPW3PXaVyT41rzRCR0-1" value="N" style="edgeLabel;html=1;align=center;verticalAlign=middle;resizable=0;points=[];fontSize=13;fontFamily=Helvetica;" vertex="1" connectable="0" parent="N4ZEJ3vlMODPW_Wpf9w_-7">
          <mxGeometry x="1" y="51" relative="1" as="geometry">
            <mxPoint x="-53" y="-50.59" as="offset" />
          </mxGeometry>
        </mxCell>
        <UserObject label="" lucidchartObjectId="gljCJS.0c2aK" id="N4ZEJ3vlMODPW_Wpf9w_-11">
          <mxCell style="html=1;jettySize=18;whiteSpace=wrap;fontSize=13;strokeColor=#494949;strokeWidth=2;rounded=1;arcSize=0;edgeStyle=orthogonalEdgeStyle;startArrow=none;;endArrow=block;endFill=1;;exitX=1;exitY=0.5;fontFamily=Helvetica;exitDx=0;exitDy=0;entryX=1;entryY=0.5;entryDx=0;entryDy=0;" edge="1" parent="TRfc0iN9wrIWuQNUJOql-1" source="N4ZEJ3vlMODPW_Wpf9w_-5" target="16MPW3PXaVyT41rzRCR0-10">
            <mxGeometry width="100" height="100" relative="1" as="geometry">
              <Array as="points">
                <mxPoint x="2410" y="341" />
                <mxPoint x="2410" y="925" />
              </Array>
              <mxPoint x="2300" y="340.86" as="sourcePoint" />
              <mxPoint x="2720" y="430" as="targetPoint" />
            </mxGeometry>
          </mxCell>
        </UserObject>
        <mxCell id="N4ZEJ3vlMODPW_Wpf9w_-12" value="Y" style="edgeLabel;html=1;align=center;verticalAlign=middle;resizable=0;points=[];fontSize=13;fontFamily=Helvetica;" vertex="1" connectable="0" parent="N4ZEJ3vlMODPW_Wpf9w_-11">
          <mxGeometry x="-0.7489" y="1" relative="1" as="geometry">
            <mxPoint x="-68.82" y="1" as="offset" />
          </mxGeometry>
        </mxCell>
        <UserObject label="서버에&amp;nbsp;&lt;br&gt;캐시 데이터&amp;nbsp;&lt;br&gt;조회" lucidchartObjectId="vFjC_WtNV4VZ" id="16MPW3PXaVyT41rzRCR0-0">
          <mxCell style="html=1;whiteSpace=wrap;rhombus;whiteSpace=wrap;fontSize=13;fontColor=#3d4752;align=center;spacing=3;strokeColor=#3d4752;strokeOpacity=100;fillOpacity=100;shadow=1;fillColor=#ffffff;strokeWidth=2;fontFamily=Helvetica;" vertex="1" zOrder="126" parent="TRfc0iN9wrIWuQNUJOql-1">
            <mxGeometry x="2180" y="450" width="120" height="58" as="geometry" />
          </mxCell>
        </UserObject>
        <mxCell id="16MPW3PXaVyT41rzRCR0-2" value="ApMaxPreparedStatement&lt;br&gt;#execute(java.lang.String)" style="text;whiteSpace=wrap;html=1;fontSize=13;fontFamily=Helvetica;verticalAlign=bottom;" vertex="1" parent="TRfc0iN9wrIWuQNUJOql-1">
          <mxGeometry x="1890" y="120" width="280" height="30" as="geometry" />
        </mxCell>
        <mxCell id="16MPW3PXaVyT41rzRCR0-5" value="CacheVO&lt;br&gt;#isNoneMode()" style="text;whiteSpace=wrap;html=1;fontSize=13;fontFamily=Helvetica;verticalAlign=bottom;align=right;" vertex="1" parent="TRfc0iN9wrIWuQNUJOql-1">
          <mxGeometry x="1770" y="290" width="100" height="30" as="geometry" />
        </mxCell>
        <mxCell id="16MPW3PXaVyT41rzRCR0-6" value="CacheService&lt;br&gt;#getCacheResponse(...)" style="text;whiteSpace=wrap;html=1;fontSize=13;fontFamily=Helvetica;verticalAlign=bottom;align=left;" vertex="1" parent="TRfc0iN9wrIWuQNUJOql-1">
          <mxGeometry x="2000" y="281" width="154" height="30" as="geometry" />
        </mxCell>
        <mxCell id="16MPW3PXaVyT41rzRCR0-7" value="ApMaxConnector&lt;br&gt;#sendRequest(CacheRequest)" style="text;whiteSpace=wrap;html=1;fontSize=13;fontFamily=Helvetica;" vertex="1" parent="TRfc0iN9wrIWuQNUJOql-1">
          <mxGeometry x="2180" y="270" width="210" height="30" as="geometry" />
        </mxCell>
        <mxCell id="16MPW3PXaVyT41rzRCR0-9" value="CacheService&lt;br&gt;#getCache(CacheVO)" style="text;whiteSpace=wrap;html=1;fontSize=13;fontFamily=Helvetica;verticalAlign=bottom;align=left;" vertex="1" parent="TRfc0iN9wrIWuQNUJOql-1">
          <mxGeometry x="2250" y="420" width="170" height="30" as="geometry" />
        </mxCell>
        <UserObject label="" lucidchartObjectId="gljCJS.0c2aK" id="CTq3ti3ezXjVOQnmaFoT-1">
          <mxCell style="html=1;jettySize=18;whiteSpace=wrap;fontSize=13;strokeColor=#494949;strokeWidth=2;rounded=1;arcSize=0;edgeStyle=orthogonalEdgeStyle;startArrow=none;;endArrow=block;endFill=1;;exitX=0;exitY=0.5;fontFamily=Helvetica;exitDx=0;exitDy=0;entryX=0.5;entryY=0;entryDx=0;entryDy=0;" edge="1" parent="TRfc0iN9wrIWuQNUJOql-1" source="16MPW3PXaVyT41rzRCR0-10" target="TRfc0iN9wrIWuQNUJOql-3">
            <mxGeometry width="100" height="100" relative="1" as="geometry">
              <Array as="points">
                <mxPoint x="1880" y="925" />
              </Array>
              <mxPoint x="1890" y="781" as="sourcePoint" />
              <mxPoint x="1890" y="1207" as="targetPoint" />
            </mxGeometry>
          </mxCell>
        </UserObject>
        <UserObject label="" lucidchartObjectId="gljCJS.0c2aK" id="CTq3ti3ezXjVOQnmaFoT-2">
          <mxCell style="html=1;jettySize=18;whiteSpace=wrap;fontSize=13;strokeColor=#494949;strokeWidth=2;rounded=1;arcSize=0;edgeStyle=orthogonalEdgeStyle;startArrow=none;;endArrow=block;endFill=1;;exitX=0.75;exitY=1;fontFamily=Helvetica;exitDx=0;exitDy=0;entryX=0;entryY=0.5;entryDx=0;entryDy=0;" edge="1" parent="TRfc0iN9wrIWuQNUJOql-1" source="qcgbi3aQZdH7kGGuuUay-0" target="tD0D4BzL7F3AZsh-9wvc-0">
            <mxGeometry width="100" height="100" relative="1" as="geometry">
              <Array as="points" />
              <mxPoint x="2240" y="592.9999999999998" as="sourcePoint" />
              <mxPoint x="1890" y="407" as="targetPoint" />
            </mxGeometry>
          </mxCell>
        </UserObject>
        <UserObject label="" lucidchartObjectId="gljCJS.0c2aK" id="CTq3ti3ezXjVOQnmaFoT-3">
          <mxCell style="html=1;jettySize=18;whiteSpace=wrap;fontSize=13;strokeColor=#494949;strokeWidth=2;rounded=1;arcSize=0;edgeStyle=orthogonalEdgeStyle;startArrow=none;;endArrow=block;endFill=1;;exitX=0.5;exitY=1;fontFamily=Helvetica;exitDx=0;exitDy=0;entryX=0.5;entryY=0;entryDx=0;entryDy=0;" edge="1" parent="TRfc0iN9wrIWuQNUJOql-1" source="tD0D4BzL7F3AZsh-9wvc-0" target="CTq3ti3ezXjVOQnmaFoT-0">
            <mxGeometry width="100" height="100" relative="1" as="geometry">
              <Array as="points" />
              <mxPoint x="2250" y="623" as="sourcePoint" />
              <mxPoint x="2250" y="660" as="targetPoint" />
            </mxGeometry>
          </mxCell>
        </UserObject>
        <UserObject label="" lucidchartObjectId="gljCJS.0c2aK" id="CTq3ti3ezXjVOQnmaFoT-4">
          <mxCell style="html=1;jettySize=18;whiteSpace=wrap;fontSize=13;strokeColor=#494949;strokeWidth=2;rounded=1;arcSize=0;edgeStyle=orthogonalEdgeStyle;startArrow=none;;endArrow=block;endFill=1;;exitX=0.5;exitY=1;fontFamily=Helvetica;exitDx=0;exitDy=0;entryX=0.5;entryY=0;entryDx=0;entryDy=0;" edge="1" parent="TRfc0iN9wrIWuQNUJOql-1" source="CTq3ti3ezXjVOQnmaFoT-0" target="16MPW3PXaVyT41rzRCR0-10">
            <mxGeometry width="100" height="100" relative="1" as="geometry">
              <Array as="points" />
              <mxPoint x="2250" y="730" as="sourcePoint" />
              <mxPoint x="2250" y="765" as="targetPoint" />
            </mxGeometry>
          </mxCell>
        </UserObject>
        <mxCell id="CTq3ti3ezXjVOQnmaFoT-6" value="" style="group" vertex="1" connectable="0" parent="TRfc0iN9wrIWuQNUJOql-1">
          <mxGeometry x="2070" y="555" width="220" height="90" as="geometry" />
        </mxCell>
        <UserObject label="캐시 데이터&lt;br&gt;직렬화&amp;nbsp;수행" lucidchartObjectId="oRjCTuPeWTr6" id="tD0D4BzL7F3AZsh-9wvc-0">
          <mxCell style="html=1;whiteSpace=wrap;;whiteSpace=wrap;fontSize=13;fontColor=#3d4752;align=center;spacing=7;strokeColor=#3d4752;strokeOpacity=100;fillOpacity=100;shadow=1;fillColor=#ffffff;strokeWidth=2;fontFamily=Helvetica;" vertex="1" zOrder="138" parent="CTq3ti3ezXjVOQnmaFoT-6">
            <mxGeometry x="120" y="85" width="100" height="50" as="geometry" />
          </mxCell>
        </UserObject>
        <mxCell id="CTq3ti3ezXjVOQnmaFoT-5" value="CacheService&lt;br&gt;#getCacheResponse(...)" style="text;whiteSpace=wrap;html=1;fontSize=13;fontFamily=Helvetica;verticalAlign=bottom;align=left;" vertex="1" parent="CTq3ti3ezXjVOQnmaFoT-6">
          <mxGeometry x="120" y="50" width="154" height="30" as="geometry" />
        </mxCell>
        <UserObject label="" lucidchartObjectId="gljCJS.0c2aK" id="CTq3ti3ezXjVOQnmaFoT-7">
          <mxCell style="html=1;jettySize=18;whiteSpace=wrap;fontSize=13;strokeColor=#494949;strokeWidth=2;rounded=1;arcSize=0;edgeStyle=orthogonalEdgeStyle;startArrow=none;;endArrow=block;endFill=1;;exitX=0;exitY=0.5;fontFamily=Helvetica;exitDx=0;exitDy=0;entryX=0.75;entryY=0;entryDx=0;entryDy=0;" edge="1" parent="TRfc0iN9wrIWuQNUJOql-1" source="16MPW3PXaVyT41rzRCR0-0" target="qcgbi3aQZdH7kGGuuUay-0">
            <mxGeometry width="100" height="100" relative="1" as="geometry">
              <Array as="points">
                <mxPoint x="2110" y="479" />
                <mxPoint x="2110" y="540" />
                <mxPoint x="1940" y="540" />
              </Array>
              <mxPoint x="2070" y="380" as="sourcePoint" />
              <mxPoint x="1880" y="676" as="targetPoint" />
            </mxGeometry>
          </mxCell>
        </UserObject>
        <mxCell id="CTq3ti3ezXjVOQnmaFoT-8" value="N" style="edgeLabel;html=1;align=center;verticalAlign=middle;resizable=0;points=[];fontSize=13;fontFamily=Helvetica;" vertex="1" connectable="0" parent="CTq3ti3ezXjVOQnmaFoT-7">
          <mxGeometry x="-0.7705" y="-3" relative="1" as="geometry">
            <mxPoint x="12" y="3.59" as="offset" />
          </mxGeometry>
        </mxCell>
        <UserObject label="" lucidchartObjectId="gljCJS.0c2aK" id="qcgbi3aQZdH7kGGuuUay-2">
          <mxCell style="html=1;jettySize=18;whiteSpace=wrap;fontSize=13;strokeColor=#494949;strokeWidth=2;rounded=1;arcSize=0;edgeStyle=orthogonalEdgeStyle;startArrow=none;;endArrow=block;endFill=1;;exitX=1;exitY=0.5;fontFamily=Helvetica;exitDx=0;exitDy=0;entryX=1;entryY=0.5;entryDx=0;entryDy=0;" edge="1" parent="TRfc0iN9wrIWuQNUJOql-1" source="16MPW3PXaVyT41rzRCR0-0" target="16MPW3PXaVyT41rzRCR0-10">
            <mxGeometry width="100" height="100" relative="1" as="geometry">
              <Array as="points">
                <mxPoint x="2410" y="479" />
                <mxPoint x="2410" y="925" />
              </Array>
              <mxPoint x="2310" y="351" as="sourcePoint" />
              <mxPoint x="2300" y="910" as="targetPoint" />
            </mxGeometry>
          </mxCell>
        </UserObject>
        <mxCell id="qcgbi3aQZdH7kGGuuUay-3" value="Y" style="edgeLabel;html=1;align=center;verticalAlign=middle;resizable=0;points=[];fontSize=13;fontFamily=Helvetica;" vertex="1" connectable="0" parent="qcgbi3aQZdH7kGGuuUay-2">
          <mxGeometry x="-0.7489" y="1" relative="1" as="geometry">
            <mxPoint x="-48.81999999999999" y="1" as="offset" />
          </mxGeometry>
        </mxCell>
        <mxCell id="qcgbi3aQZdH7kGGuuUay-6" value="" style="group" vertex="1" connectable="0" parent="TRfc0iN9wrIWuQNUJOql-1">
          <mxGeometry x="2020" y="680" width="270" height="95" as="geometry" />
        </mxCell>
        <UserObject label="서버에 캐시 &lt;br&gt;데이터 전송" lucidchartObjectId="TujC~g_oZXIJ" id="CTq3ti3ezXjVOQnmaFoT-0">
          <mxCell style="html=1;whiteSpace=wrap;shape=parallelogram;perimeter=parallelogramPerimeter;anchorPointDirection=0;whiteSpace=wrap;fontSize=13;fontColor=#3d4752;align=center;spacing=3;strokeColor=#3d4752;strokeOpacity=100;fillOpacity=100;shadow=1;fillColor=#ffffff;strokeWidth=2;fontFamily=Helvetica;size=0.046875;" vertex="1" zOrder="120" parent="qcgbi3aQZdH7kGGuuUay-6">
            <mxGeometry x="170" y="85" width="100" height="60" as="geometry" />
          </mxCell>
        </UserObject>
        <mxCell id="qcgbi3aQZdH7kGGuuUay-4" value="ApMaxConnector&lt;br&gt;#sendRequest(CacheRequest)" style="text;whiteSpace=wrap;html=1;fontSize=13;fontFamily=Helvetica;align=right;verticalAlign=bottom;" vertex="1" parent="qcgbi3aQZdH7kGGuuUay-6">
          <mxGeometry width="210" height="30" as="geometry" />
        </mxCell>
        <mxCell id="qcgbi3aQZdH7kGGuuUay-7" value="" style="group" vertex="1" connectable="0" parent="TRfc0iN9wrIWuQNUJOql-1">
          <mxGeometry x="2060" y="810" width="230" height="95" as="geometry" />
        </mxCell>
        <UserObject label="캐시 데이터&lt;br&gt;역직렬화&amp;nbsp;수행" lucidchartObjectId="oRjCTuPeWTr6" id="16MPW3PXaVyT41rzRCR0-10">
          <mxCell style="html=1;whiteSpace=wrap;;whiteSpace=wrap;fontSize=13;fontColor=#3d4752;align=center;spacing=7;strokeColor=#3d4752;strokeOpacity=100;fillOpacity=100;shadow=1;fillColor=#ffffff;strokeWidth=2;fontFamily=Helvetica;" vertex="1" zOrder="138" parent="qcgbi3aQZdH7kGGuuUay-7">
            <mxGeometry x="130" y="85" width="100" height="60" as="geometry" />
          </mxCell>
        </UserObject>
        <mxCell id="qcgbi3aQZdH7kGGuuUay-5" value="CacheService&lt;br&gt;#getCache(CacheVO)" style="text;whiteSpace=wrap;html=1;fontSize=13;fontFamily=Helvetica;verticalAlign=bottom;align=right;" vertex="1" parent="qcgbi3aQZdH7kGGuuUay-7">
          <mxGeometry width="170" height="30" as="geometry" />
        </mxCell>
        <mxCell id="pIwSrZ5FTvW6WHdobQLV-0" value="" style="group" vertex="1" connectable="0" parent="TRfc0iN9wrIWuQNUJOql-1">
          <mxGeometry x="1700" y="528" width="270" height="102" as="geometry" />
        </mxCell>
        <mxCell id="qcgbi3aQZdH7kGGuuUay-0" value="SQL 실행" style="shape=process;whiteSpace=wrap;html=1;backgroundOutline=1;shadow=1;strokeColor=#000000;strokeWidth=1;gradientColor=none;fontFamily=Helvetica;fontSize=13;align=center;" vertex="1" parent="pIwSrZ5FTvW6WHdobQLV-0">
          <mxGeometry x="150" y="52" width="120" height="50" as="geometry" />
        </mxCell>
        <UserObject label="java.sql.PreparedStatement&lt;br&gt;#execute()" link="java.sql.PreparedStatement#execute" id="TRfc0iN9wrIWuQNUJOql-13">
          <mxCell style="text;whiteSpace=wrap;html=1;fontSize=13;fontFamily=Helvetica;verticalAlign=bottom;align=right;" vertex="1" parent="pIwSrZ5FTvW6WHdobQLV-0">
            <mxGeometry width="170" height="50" as="geometry" />
          </mxCell>
        </UserObject>
      </root>
    </mxGraphModel>
  </diagram>
</mxfile>
